<svg width="86" height="90" viewBox="0 0 86 90" fill="none" xmlns="http://www.w3.org/2000/svg">
<path d="M80.1568 44.7032C80.1568 47.0619 80.9047 49.3604 82.2938 51.2705L85.1405 55.1886C85.4886 55.667 85.7176 56.2209 85.8088 56.8048C85.9 57.3886 85.8507 57.9857 85.6649 58.5469C85.4773 59.1021 85.1632 59.6066 84.7474 60.0209C84.3315 60.4352 83.8251 60.7481 83.2677 60.935L78.6605 62.4276C76.4036 63.1528 74.4363 64.5737 73.0427 66.4852C71.6491 68.3966 70.9012 70.6998 70.9069 73.0622V77.9131C70.9065 78.5021 70.7661 79.0826 70.4973 79.6071C70.2285 80.1317 69.8388 80.5854 69.3602 80.9311C68.8816 81.2769 68.3277 81.5049 67.7436 81.5964C67.1596 81.688 66.5622 81.6406 66.0001 81.458L61.3929 79.9654C59.1329 79.2298 56.697 79.2273 54.4355 79.9581C52.174 80.689 50.2035 82.1156 48.8074 84.0327L45.9607 87.9507C45.611 88.4251 45.1541 88.8108 44.627 89.0766C44.0999 89.3424 43.5174 89.4809 42.9267 89.4809C42.3359 89.4809 41.7534 89.3424 41.2263 89.0766C40.6993 88.8108 40.2424 88.4251 39.8927 87.9507L37.0459 84.0327C35.6521 82.1129 33.6817 80.6842 31.4195 79.9531C29.1572 79.222 26.7201 79.2263 24.4604 79.9654L19.8532 81.458C19.2912 81.6406 18.6937 81.688 18.1097 81.5964C17.5257 81.5049 16.9717 81.2769 16.4931 80.9311C16.0145 80.5854 15.6249 80.1317 15.356 79.6071C15.0872 79.0826 14.9468 78.5021 14.9464 77.9131V73.0622C14.9522 70.6998 14.2042 68.3966 12.8106 66.4852C11.417 64.5737 9.44977 63.1528 7.19285 62.4276L2.58565 60.935C2.02825 60.7481 1.52182 60.4352 1.10596 60.0209C0.690084 59.6066 0.376058 59.1021 0.188405 58.5469C0.00265986 57.9857 -0.0466565 57.3886 0.0445147 56.8048C0.135686 56.2209 0.364736 55.667 0.712804 55.1886L3.55953 51.2705C4.9486 49.3604 5.69649 47.0619 5.69649 44.7032C5.69649 42.3444 4.9486 40.046 3.55953 38.1358L0.712804 34.2178C0.364736 33.7393 0.135686 33.1854 0.0445147 32.6016C-0.0466565 32.0177 0.00265986 31.4206 0.188405 30.8595C0.376058 30.3042 0.690084 29.7997 1.10596 29.3854C1.52182 28.9711 2.02825 28.6583 2.58565 28.4713L7.19285 26.9788C9.44977 26.2535 11.417 24.8326 12.8106 22.9212C14.2042 21.0097 14.9522 18.7065 14.9464 16.3441V11.4932C14.9468 10.9043 15.0872 10.3238 15.356 9.79924C15.6249 9.27469 16.0145 8.82098 16.4931 8.47522C16.9717 8.12947 17.5257 7.90147 18.1097 7.80991C18.6937 7.71832 19.2912 7.76576 19.8532 7.94835L24.4979 9.44093C26.7528 10.1678 29.1806 10.1659 31.4343 9.43536C33.688 8.70485 35.6522 7.28319 37.0459 5.37364L39.8927 1.45561C40.2561 1.00153 40.7176 0.634857 41.2429 0.382858C41.7682 0.130859 42.3437 0 42.9267 0C43.5097 0 44.0852 0.130859 44.6104 0.382858C45.1357 0.634857 45.5972 1.00153 45.9607 1.45561L48.8074 5.37364C50.2012 7.28319 52.1653 8.70485 54.419 9.43536C56.6727 10.1659 59.1006 10.1678 61.3554 9.44093L66.0001 7.94835C66.5622 7.76576 67.1596 7.71832 67.7436 7.80991C68.3277 7.90147 68.8816 8.12947 69.3602 8.47522C69.8388 8.82098 70.2285 9.27469 70.4973 9.79924C70.7661 10.3238 70.9065 10.9043 70.9069 11.4932V16.3441C70.9012 18.7065 71.6491 21.0097 73.0427 22.9212C74.4363 24.8326 76.4036 26.2535 78.6605 26.9788L83.2677 28.4713C83.8251 28.6583 84.3315 28.9711 84.7474 29.3854C85.1632 29.7997 85.4773 30.3042 85.6649 30.8595C85.8507 31.4206 85.9 32.0177 85.8088 32.6016C85.7176 33.1854 85.4886 33.7393 85.1405 34.2178L82.2938 38.1358C80.9047 40.046 80.1568 42.3444 80.1568 44.7032Z" fill="#E43737"/>
<path fill-rule="evenodd" clip-rule="evenodd" d="M27.0248 29.1716C25.4627 30.7337 25.4627 33.2663 27.0248 34.8284L37.6315 45.4351L27.0249 56.0416C25.4628 57.6037 25.4628 60.1364 27.0249 61.6985C28.587 63.2606 31.1197 63.2606 32.6818 61.6985L43.2883 51.0919L53.8949 61.6985C55.457 63.2606 57.9897 63.2606 59.5518 61.6985C61.1139 60.1364 61.1139 57.6037 59.5518 56.0416L48.9452 45.4351L59.5518 34.8284C61.1139 33.2663 61.1139 30.7337 59.5518 29.1716C57.9897 27.6095 55.4571 27.6095 53.895 29.1716L43.2883 39.7782L32.6817 29.1716C31.1196 27.6095 28.5869 27.6095 27.0248 29.1716Z" fill="white"/>
</svg>
